<?xml version="1.0" encoding="UTF-8" standalone="no"?>
<svg
   version="1.1"
   x="0px"
   y="0px"
   viewBox="0 0 89.999275 70.867706"
   enable-background="new 0 0 100 100"
   xml:space="preserve"
   id="svg8"
   width="89.999275"
   height="70.867706"
   xmlns="http://www.w3.org/2000/svg"
   xmlns:svg="http://www.w3.org/2000/svg"><defs
     id="defs12" /><path
     d="m 89.996637,24.160153 c -0.116,-7.802 -4.881,-14.3500004 -13.155,-13.85 -11.109,0.672 -22.649,8.655 -27.687,19.103 -0.102,-2.933 -0.589,-5.709 -1.955,-6.911 0.37,-0.472 0.533,-1.297 0.519,-1.709 -0.028,-0.931 -0.542,-1.848 -1.422,-2.213 1.977,-6.83 4.682,-12.6780004 9.442,-18.05000041 0.259,-0.296 -0.157,-0.722 -0.435,-0.435 -4.751,4.85700001 -8.469,11.58600041 -9.312,18.39300041 -0.472,-0.116 -0.977,-0.088 -1.445,0.079 -0.13,-4.973 -3.315,-9.4650004 -6.492,-13.0530004 -0.264,-0.301 -0.671,0.13 -0.435,0.435 3.126,3.95 5.672,7.7380004 6.58,12.7620004 -0.227,0.12 -0.44,0.264 -0.621,0.44 -0.88,0.838 -0.912,2.167 -0.301,3.172 -1.954,1.051 -2.746,3.385 -3.089,5.575 -0.01,0.064 -0.014,0.128 -0.024,0.192 -5.343,-9.792 -16.372,-17.136 -27.007,-17.779 -8.2749997,-0.5000004 -13.03999967,6.047 -13.15499967,13.85 -0.111,7.525 3.27799997,15.786 10.89099967,18.198 2.135,0.676 4.288,1.139 6.455,1.431 -4.603,1.121 -8.0149997,5.58 -8.3069997,10.437 -0.412,6.876 4.3569997,12.641 10.4699997,15.17 3.038,1.26 6.64,2.112 9.807,0.847 2.908,-1.153 4.996,-3.64 6.492,-6.298 1.954,-3.478 3.315,-7.339 4.853,-11.007 0.288,-0.685 0.614,-1.387 0.942,-2.103 0.166,1.255 0.342,2.509 0.537,3.761 0.658,4.191 1.116,8.928 3.542,12.535 0.195,0.292 0.653,0.185 0.667,-0.181 0.195,-5.888 0.796,-11.74 1.38,-17.595 0.531,1.231 1.12,2.432 1.604,3.582 1.537,3.667 2.899,7.529 4.853,11.007 1.496,2.658 3.584,5.145 6.492,6.298 3.167,1.264 6.77,0.412 9.807,-0.847 6.112,-2.528 10.882,-8.293 10.47,-15.17 -0.292,-4.857 -3.704,-9.317 -8.307,-10.437 2.167,-0.292 4.32,-0.755 6.455,-1.431 7.613,-2.413 11.002,-10.673 10.891,-18.198 z"
     id="butterfly-path"
     style="fill:#cea8a4;fill-opacity:1" /></svg>
