<?xml version="1.0" encoding="UTF-8" standalone="no"?>
<!-- Created with Inkscape (http://www.inkscape.org/) -->

<svg
   width="485.65875"
   height="666.37195"
   viewBox="0 0 128.49721 176.31091"
   version="1.1"
   id="svg5"
   inkscape:version="1.1 (1:1.1+202105261517+ce6663b3b7)"
   sodipodi:docname="cat.svg"
   xmlns:inkscape="http://www.inkscape.org/namespaces/inkscape"
   xmlns:sodipodi="http://sodipodi.sourceforge.net/DTD/sodipodi-0.dtd"
   xmlns="http://www.w3.org/2000/svg"
   xmlns:svg="http://www.w3.org/2000/svg">
  <sodipodi:namedview
     id="namedview7"
     pagecolor="#ffffff"
     bordercolor="#666666"
     borderopacity="1.0"
     inkscape:pageshadow="2"
     inkscape:pageopacity="0.0"
     inkscape:pagecheckerboard="0"
     inkscape:document-units="px"
     showgrid="false"
     units="px"
     inkscape:showpageshadow="false"
     inkscape:zoom="0.70710678"
     inkscape:cx="376.18081"
     inkscape:cy="218.496"
     inkscape:window-width="1920"
     inkscape:window-height="1055"
     inkscape:window-x="0"
     inkscape:window-y="25"
     inkscape:window-maximized="1"
     inkscape:current-layer="layer1"
     inkscape:snap-global="false"
     showguides="true"
     inkscape:guide-bbox="true"
     inkscape:snap-bbox="true"
     inkscape:bbox-paths="true"
     inkscape:bbox-nodes="true"
     inkscape:snap-bbox-edge-midpoints="true"
     inkscape:snap-bbox-midpoints="true"
     inkscape:object-paths="true"
     inkscape:snap-intersection-paths="true"
     inkscape:snap-midpoints="true"
     inkscape:snap-center="true"
     inkscape:snap-object-midpoints="true"
     fit-margin-top="0"
     fit-margin-left="0"
     fit-margin-right="0"
     fit-margin-bottom="0" />
  <defs
     id="defs2">
    <rect
       x="388.61905"
       y="-5.7489542"
       width="486.57699"
       height="224.3506"
       id="rect2088" />
  </defs>
  <g
     inkscape:label="Layer 1"
     inkscape:groupmode="layer"
     id="layer1"
     transform="translate(-683.18511,-91.788752)">
    <g
       id="g14183">
      <ellipse
         style="opacity:0.159297;fill:#000000;fill-opacity:1;stroke:none;stroke-width:0.661458;stroke-linecap:round;stroke-linejoin:round;stroke-miterlimit:4;stroke-dasharray:none;stroke-dashoffset:2.50394;stroke-opacity:1"
         id="path13409"
         cx="747.43372"
         cy="263.08444"
         rx="64.248604"
         ry="5.0152192" />
      <path
         style="fill:#1a1a1a;stroke:none;stroke-width:0.264583px;stroke-linecap:butt;stroke-linejoin:miter;stroke-opacity:1"
         d="m 754.51385,261.40814 11.4221,-0.0117 0.2958,1.90353 1.1855,0.7592 15.9013,-0.26377 11.1685,-0.81478 3.949,-0.96871 0.8065,-2.0114 -0.2939,-3.6376 -1.8779,-2.48947 -7.1197,-1.87104 -3.1467,-0.0927 -5.2351,-1.76411 -11.5742,0.0283 -11.313,1.21273 z"
         id="path12526" />
      <path
         style="fill:#1a1a1a;stroke:none;stroke-width:0.264583px;stroke-linecap:butt;stroke-linejoin:miter;stroke-opacity:1"
         d="m 742.75825,263.39039 13.3732,-0.42029 8.8336,-21.70368 2.5796,-14.5042 -0.6836,-11.86757 -4.0634,-17.89328 -4.3224,-14.90796 -8.4875,-13.93331 1.1269,-7.22312 -0.9223,-7.42575 -1.8498,-6.94511 -0.3977,-7.51922 0.7221,-4.5095 -20.1488,-14.54649 -22.6266,13.87944 0.9718,9.73996 -3.4132,14.99867 -0.5713,6.66496 1.6568,9.87615 -0.131,7.30586 1.6149,6.36825 -2.8891,9.10225 -3.8539,12.05611 -4.1166,9.51511 -0.5951,9.47275 1.2604,11.23911 1.7998,8.79494 3.4425,7.62692 4.0028,4.09336 5.7011,2.39203 z"
         id="path12528" />
      <path
         style="fill:none;stroke:#666666;stroke-width:0.264583;stroke-linecap:butt;stroke-linejoin:miter;stroke-miterlimit:4;stroke-dasharray:none;stroke-opacity:1"
         d="m 784.79235,254.75951 -12.5465,2.38395 -4.2341,2.06394 -2.0758,2.18904 0.2958,1.90354"
         id="path12530" />
      <path
         style="fill:#000080;stroke:none;stroke-width:0.264583px;stroke-linecap:butt;stroke-linejoin:miter;stroke-opacity:1"
         d="m 726.65035,173.18794 -20.6308,15.63626 0.9775,14.23908 0.7331,12.46211 2.8508,8.24333 3.7932,27.32901 -0.7201,4.84668 -2.2915,3.43478 -0.684,4.29375 0.6853,1.64925 6.9494,0.28451 6.2705,-0.45199 1.3063,-2.14058 0.3257,-2.81662 0.4821,-5.30943 -1.3229,-11.46664 0.853,-8.67386 0.5565,-9.77767 -3.1856,-11.12572 3.2093,4.64429 2.4788,-0.71587 -0.4819,9.48407 0.6751,8.41266 -1.1695,10.04282 -0.076,3.61955 -1.0263,5.61374 -0.3679,2.82257 0.3109,0.75548 -0.814,1.26151 0.1047,3.65155 1.1311,1.69325 5.6539,0.86942 8.4975,-0.39039 0.8026,-1.73651 -0.1287,-2.49944 -1.9443,-3.87926 0.2261,-5.98912 3.1715,-17.10295 3.0419,-12.48828 1.5022,-7.4889 0.7948,-4.73339 -0.366,-8.07154 0.6015,-5.44619 0.9015,-4.43482 -1.5787,-7.96366 0.052,-10.02335 1.1868,-5.59133 z"
         id="path12532"
         sodipodi:nodetypes="cccccccccccccccccccccccccccccccccccccccccccccccc" />
      <path
         id="path12534"
         style="fill:#292929;fill-opacity:1;stroke:none;stroke-width:0.264583px;stroke-linecap:butt;stroke-linejoin:miter;stroke-opacity:1"
         d="m 728.51695,119.99113 -22.62653,13.87926 0.97152,9.73997 -3.41273,14.99857 -0.57152,6.66522 1.65674,9.87589 -0.13073,7.30601 1.61488,6.36809 0.97719,14.23892 0.73329,12.46229 2.85049,8.24342 3.79354,27.32909 -0.72035,4.84673 -2.29135,3.43442 -0.68418,4.29379 0.68522,1.64952 6.94946,0.28422 6.27042,-0.45165 1.30638,-2.14096 0.32607,-2.81637 0.48215,-5.30924 -1.32292,-11.467 0.85265,-8.67388 0.55655,-9.7777 -3.18532,-11.12542 3.20911,4.64416 2.4789,-0.71572 -0.48212,9.48418 0.6754,8.4124 -1.16996,10.0428 -0.076,3.61942 -1.02629,5.61413 -0.36793,2.82256 0.31109,0.75551 -0.81391,1.26142 0.10491,3.65146 1.13067,1.69293 5.65391,0.86971 8.49767,-0.39068 0.80254,-1.73633 -0.12867,-2.49959 -1.94405,-3.87883 0.22582,-5.9893 3.17138,-17.10283 3.04217,-12.48865 1.50226,-7.48894 0.79478,-4.73305 -0.3664,-8.07186 0.60153,-5.44618 0.90176,-4.43435 -1.57872,-7.96386 0.0522,-10.02316 1.18649,-5.59139 1.12708,-7.22333 -0.92245,-7.4259 -1.84949,-6.9448 -0.39791,-7.51944 0.72192,-4.50928 z" />
      <g
         id="g12781"
         transform="rotate(18.09826,719.96541,125.95406)">
        <path
           style="fill:#0c0c0c;fill-opacity:1;stroke:none;stroke-width:0.264583px;stroke-linecap:butt;stroke-linejoin:miter;stroke-opacity:1"
           d="m 727.64094,144.23712 12.0854,-4.01355 9.69271,-5.629 2.5739,-7.29341 -0.072,-4.01865 -2.47152,-5.85943 1.64248,-6.23095 1.8815,-6.57323 0.062,-5.760613 -1.43647,-2.775154 -3.1433,0.903128 -8.97159,6.576409 -3.25738,0.84744 -8.51222,-0.17704 -9.94402,0.3256 -2.46354,-1.19804 -7.73175,-6.173576 -3.43542,-1.640848 -1.71411,0.196543 -0.70162,1.65753 0.35189,8.336041 1.32317,4.49855 0.86564,6.38603 -2.07919,3.65831 -0.14258,5.77514 1.06159,4.57308 2.61251,5.16229 9.38492,4.86771 11.61664,3.47309 z"
           id="path12536"
           sodipodi:nodetypes="cccccccccccccccccccccccccccccc" />
        <circle
           style="opacity:1;fill:#f4d7d7;fill-opacity:1;stroke:none;stroke-width:0.661458;stroke-linecap:round;stroke-linejoin:round;stroke-miterlimit:4;stroke-dasharray:none;stroke-dashoffset:2.50394;stroke-opacity:1"
           id="circle12630"
           cx="718.255"
           cy="118.70667"
           r="2.7187493" />
        <circle
           style="opacity:1;fill:#f4d7d7;fill-opacity:1;stroke:none;stroke-width:0.661458;stroke-linecap:round;stroke-linejoin:round;stroke-miterlimit:4;stroke-dasharray:none;stroke-dashoffset:2.50394;stroke-opacity:1"
           id="circle12632"
           cx="737.95862"
           cy="118.5895"
           r="2.7187493" />
      </g>
    </g>
    <g
       aria-label="meow."
       transform="matrix(0.73493233,0,0,0.73493233,475.6003,121.49815)"
       id="text2086"
       style="font-size:40px;line-height:1.25;letter-spacing:0px;word-spacing:0px;white-space:pre;shape-inside:url(#rect2088);fill:#292929;stroke-width:0.360011">
      <path
         d="m 390.13914,29.402578 q -0.28,-0.28 -0.44,-1.44 -0.12,-1.16 -0.2,-2.52 -0.08,-1.4 -0.12,-2.64 0,-1.28 0,-1.76 0,-1.2 0.04,-2.16 0.04,-0.96 0.12,-1.64 0.12,-0.68 0.8,-0.68 0.4,0 0.6,0.28 0.2,0.24 0.2,0.6 -0.08,0.68 -0.12,1.6 -0.04,0.92 -0.04,1.96 0,0.6 0,1.2 0,0.6 0.04,1.2 0.24,-0.8 0.6,-1.84 0.36,-1.04 0.92,-1.96 0.56,-0.96 1.32,-1.6 0.76,-0.68 1.76,-0.68 1.36,0 2.4,1.64 1.32,-1.64 2.8,-1.64 1.28,0 2,0.88 0.76,0.84 1.12,2.04 0.4,1.2 0.48,2.52 0.12,1.28 0.12,2.2 0,1.08 -0.08,2.12 -0.08,1.04 -0.16,1.84 -0.04,0.32 -0.28,0.52 -0.2,0.2 -0.56,0.2 -0.32,-0.04 -0.56,-0.28 -0.2,-0.28 -0.16,-0.6 0.08,-1.04 0.12,-1.96 0.08,-0.96 0.08,-1.84 0,-0.48 -0.04,-1.48 -0.04,-1.04 -0.28,-2.04 -0.2,-1 -0.64,-1.76 -0.4,-0.76 -1.16,-0.76 -0.92,0 -2,1.64 0.68,1.72 0.68,3.36 0,0.48 -0.12,1 -0.08,0.48 -0.32,0.92 -0.24,0.4 -0.64,0.68 -0.36,0.24 -0.96,0.24 -0.92,0 -1.28,-0.64 -0.36,-0.68 -0.36,-1.48 0,-0.88 0.32,-2 0.36,-1.16 0.92,-2.2 -0.8,-1.52 -1.44,-1.52 -0.6,0 -1.12,0.6 -0.52,0.6 -0.96,1.56 -0.44,0.96 -0.8,2.12 -0.36,1.16 -0.6,2.28 -0.24,1.08 -0.44,2.04 -0.16,0.92 -0.2,1.4 -0.04,0.32 -0.28,0.52 -0.2,0.16 -0.52,0.16 -0.28,0 -0.56,-0.2 z m 7.64,-6.6 q -0.16,0.44 -0.28,0.92 -0.08,0.48 -0.08,0.92 0,0.36 0.08,0.52 0.28,-0.04 0.32,-0.56 0.08,-0.52 0.08,-0.68 0,-0.52 -0.12,-1.12 z"
         style="font-family:'Fall is Coming';-inkscape-font-specification:'Fall is Coming, Normal'"
         id="path12777" />
      <path
         d="m 413.77912,25.562578 q 0.24,-0.4 0.72,-0.4 0.32,0 0.56,0.24 0.24,0.24 0.24,0.56 0,0.2 -0.12,0.4 -0.04,0.04 -0.4,0.56 -0.36,0.52 -1.04,1.12 -0.64,0.6 -1.6,1.12 -0.96,0.48 -2.2,0.48 -1.12,0 -1.92,-0.44 -0.8,-0.48 -1.32,-1.2 -0.52,-0.76 -0.76,-1.72 -0.24,-0.96 -0.24,-1.92 0,-1.16 0.32,-2.36 0.36,-1.24 1,-2.24 0.68,-1.04 1.68,-1.68 1,-0.64 2.32,-0.64 1.48,0 2.32,0.96 0.84,0.96 0.84,2.36 0,1.12 -0.72,1.96 -0.72,0.8 -1.76,1.36 -1.04,0.52 -2.24,0.84 -1.16,0.28 -2.08,0.4 0.2,1.08 0.8,1.92 0.6,0.8 1.76,0.8 0.88,0 1.6,-0.36 0.72,-0.4 1.2,-0.84 0.52,-0.48 0.76,-0.88 0.28,-0.4 0.28,-0.4 z m -1.2,-4.8 q 0,-0.76 -0.4,-1.24 -0.36,-0.48 -1.16,-0.48 -0.88,0 -1.56,0.44 -0.64,0.44 -1.12,1.16 -0.44,0.68 -0.68,1.52 -0.24,0.8 -0.32,1.56 0.72,-0.12 1.64,-0.36 0.92,-0.24 1.72,-0.6 0.8,-0.36 1.32,-0.84 0.56,-0.52 0.56,-1.16 z"
         style="font-family:'Fall is Coming';-inkscape-font-specification:'Fall is Coming, Normal'"
         id="path12779" />
      <path
         d="m 420.57907,29.642578 q -1.12,0 -1.96,-0.48 -0.84,-0.52 -1.36,-1.28 -0.52,-0.8 -0.8,-1.76 -0.24,-1 -0.24,-2 0,-1.12 0.32,-2.24 0.32,-1.16 0.92,-2.08 0.64,-0.96 1.6,-1.52 0.96,-0.6 2.24,-0.6 1.08,0 1.88,0.52 0.8,0.52 1.32,1.36 0.56,0.84 0.8,1.88 0.28,1.04 0.28,2.08 0,1.12 -0.32,2.24 -0.28,1.08 -0.92,1.96 -0.64,0.88 -1.56,1.4 -0.92,0.52 -2.2,0.52 z m 0.68,-10.36 q -0.92,0 -1.56,0.48 -0.64,0.44 -1.08,1.16 -0.4,0.72 -0.6,1.56 -0.2,0.84 -0.2,1.64 0,0.72 0.16,1.44 0.16,0.72 0.48,1.28 0.36,0.52 0.88,0.88 0.52,0.32 1.24,0.32 0.92,0 1.56,-0.4 0.64,-0.44 1.04,-1.08 0.4,-0.64 0.6,-1.44 0.2,-0.84 0.2,-1.6 0,-0.76 -0.2,-1.52 -0.16,-0.76 -0.52,-1.36 -0.32,-0.6 -0.84,-0.96 -0.48,-0.4 -1.16,-0.4 z"
         style="font-family:'Fall is Coming';-inkscape-font-specification:'Fall is Coming, Normal'"
         id="path12781" />
      <path
         d="m 431.939,21.922578 q 0,-0.92 0.4,-1.6 0.44,-0.68 1.44,-0.68 1.16,0 1.6,0.88 0.48,0.84 0.48,1.84 0,0.84 -0.24,1.84 -0.24,1 -0.68,1.96 0.64,1.04 1.08,1.48 0.48,0.4 0.64,0.4 0.6,0 1.04,-0.6 0.48,-0.64 0.84,-1.56 0.36,-0.96 0.6,-2.12 0.28,-1.2 0.44,-2.28 0.2,-1.12 0.28,-2.04 0.08,-0.92 0.12,-1.4 0.08,-0.76 0.84,-0.76 0.76,0.08 0.76,0.84 -0.04,0.72 -0.16,1.88 -0.12,1.12 -0.36,2.4 -0.2,1.28 -0.56,2.6 -0.36,1.28 -0.88,2.32 -0.52,1 -1.28,1.68 -0.72,0.64 -1.68,0.64 -0.76,0 -1.44,-0.6 -0.64,-0.6 -1.16,-1.32 -1.36,1.92 -2.96,1.92 -1.32,0 -2.16,-1.04 -0.84,-1.04 -1.32,-2.48 -0.48,-1.44 -0.68,-2.96 -0.2,-1.52 -0.2,-2.44 0,-0.76 0.04,-1.48 0.08,-0.72 0.24,-1.36 0.16,-0.64 0.76,-0.64 0.44,0 0.6,0.32 0.2,0.28 0.2,0.68 -0.24,1.08 -0.24,2.44 0,0.52 0.12,1.76 0.16,1.2 0.48,2.44 0.32,1.24 0.84,2.2 0.52,0.96 1.32,0.96 0.48,0 1,-0.48 0.56,-0.52 1.04,-1.4 -0.44,-0.92 -0.84,-2.08 -0.36,-1.16 -0.36,-2.16 z m 1.6,0 q 0,0.84 0.44,2.16 0.12,-0.44 0.2,-0.88 0.08,-0.44 0.08,-0.84 0,-0.2 -0.08,-0.64 -0.08,-0.48 -0.4,-0.48 h -0.08 q -0.04,0.04 -0.04,0.04 -0.04,0.04 -0.08,0.2 -0.04,0.12 -0.04,0.44 z"
         style="font-family:'Fall is Coming';-inkscape-font-specification:'Fall is Coming, Normal'"
         id="path12783" />
      <path
         d="m 442.17889,29.642578 q -0.36,0 -0.64,-0.24 -0.24,-0.28 -0.24,-0.64 0,-0.4 0.24,-0.64 0.28,-0.28 0.64,-0.28 0.4,0 0.64,0.28 0.28,0.24 0.28,0.64 0,0.36 -0.28,0.64 -0.24,0.24 -0.64,0.24 z"
         style="font-family:'Fall is Coming';-inkscape-font-specification:'Fall is Coming, Normal'"
         id="path12785" />
    </g>
  </g>
</svg>
