<?xml version="1.0" encoding="UTF-8" standalone="no"?>
<svg
   viewBox="0 0 128.49721 176.31091"
   version="1.1"
   id="cat"
   xmlns="http://www.w3.org/2000/svg"
   xmlns:svg="http://www.w3.org/2000/svg">
  <defs
     id="defs6">
    <rect
       x="586.39877"
       y="167.40736"
       width="208.06367"
       height="78.230075"
       id="rect2" />
    <rect
       x="388.61905"
       y="-5.7489542"
       width="486.57699"
       height="224.3506"
       id="rect4" />
  </defs>
  <ellipse
     style="opacity:0.159297;fill:#000000"
     cx="64.248604"
     cy="171.29568"
     rx="64.248604"
     ry="5.0152192"
     id="ellipse8" />
  <path
     style="fill:#1a1a1a"
     d="m 71.32874,169.61939 11.4221,-0.0117 0.2958,1.90353 1.1855,0.7592 15.9013,-0.26377 11.1685,-0.81478 3.949,-0.96871 0.8065,-2.0114 -0.2939,-3.6376 -1.8779,-2.48947 -7.1197,-1.87104 -3.1467,-0.0927 -5.2351,-1.76411 -11.5742,0.0283 -11.313,1.21273 z"
     id="path10" />
  <path
     style="fill:#1a1a1a"
     d="m 59.57314,171.60164 13.3732,-0.42029 8.8336,-21.70368 2.5796,-14.5042 -0.6836,-11.86757 -4.0634,-17.89328 -4.3224,-14.907962 -8.4875,-13.93331 1.1269,-7.22312 -0.9223,-7.42575 -1.8498,-6.94511 -0.3977,-7.51922 0.7221,-4.5095 -20.1488,-14.54649 -22.6266,13.87944 0.9718,9.73996 -3.4132,14.99867 -0.5713,6.66496 1.6568,9.87615 -0.131,7.30586 1.6149,6.36825 -2.8891,9.102252 -3.8539,12.05611 -4.1166,9.51511 -0.5951,9.47275 1.2604,11.23911 1.7998,8.79494 3.4425,7.62692 4.0028,4.09336 5.7011,2.39203 z"
     id="path12" />
  <path
     style="fill:#292929;fill-opacity:1"
     d="m 45.33184,28.202378 -22.62653,13.87926 0.97152,9.73997 -3.41273,14.99857 -0.57152,6.66522 1.65674,9.87589 -0.13073,7.30601 1.61488,6.36809 0.97719,14.238922 0.73329,12.46229 2.85049,8.24342 3.79354,27.32909 -0.72035,4.84673 -2.29135,3.43442 -0.68418,4.29379 0.68522,1.64952 6.94946,0.28422 6.27042,-0.45165 1.30638,-2.14096 0.32607,-2.81637 0.48215,-5.30924 -1.32292,-11.467 0.85265,-8.67388 0.55655,-9.7777 -3.18532,-11.12542 3.20911,4.64416 2.4789,-0.71572 -0.48212,9.48418 0.6754,8.4124 -1.16996,10.0428 -0.076,3.61942 -1.02629,5.61413 -0.36793,2.82256 0.31109,0.75551 -0.81391,1.26142 0.10491,3.65146 1.13067,1.69293 5.65391,0.86971 8.49767,-0.39068 0.80254,-1.73633 -0.12867,-2.49959 -1.94405,-3.87883 0.22582,-5.9893 3.17138,-17.10283 3.04217,-12.48865 1.50226,-7.48894 0.79478,-4.73305 -0.3664,-8.07186 0.60153,-5.44618 0.90176,-4.434352 -1.57872,-7.96386 0.0522,-10.02316 1.18649,-5.59139 1.12708,-7.22333 -0.92245,-7.4259 -1.84949,-6.9448 -0.39791,-7.51944 0.72192,-4.50928 z"
     id="path18" />
  <path
     style="stroke:#666666;stroke-width:0.264583;stroke-linecap:butt;stroke-linejoin:miter;stroke-miterlimit:4;stroke-dasharray:none;stroke-opacity:1"
     d="m 101.60724,162.97076 -12.5465,2.38395 -4.2341,2.06394 -2.0758,2.18904 0.2958,1.90354"
     id="path14" />
  <g
     transform="rotate(18.09826,666.53908,-2064.766)"
     id="g24">
    <path
       style="fill:#0c0c0c;fill-opacity:1"
       d="m 727.64094,144.23712 12.0854,-4.01355 9.69271,-5.629 2.5739,-7.29341 -0.072,-4.01865 -2.47152,-5.85943 1.64248,-6.23095 1.8815,-6.57323 0.062,-5.760613 -1.43647,-2.775154 -3.1433,0.903128 -8.97159,6.576409 -3.25738,0.84744 -8.51222,-0.17704 -9.94402,0.3256 -2.46354,-1.19804 -7.73175,-6.173576 -3.43542,-1.640848 -1.71411,0.196543 -0.70162,1.65753 0.35189,8.336041 1.32317,4.49855 0.86564,6.38603 -2.07919,3.65831 -0.14258,5.77514 1.06159,4.57308 2.61251,5.16229 9.38492,4.86771 11.61664,3.47309 z"
       id="path20" />
    <circle
       style="opacity:1;fill:#f4d7d7;fill-opacity:1"
       id="cat-left-eye"
       cx="718.255"
       cy="118.70667"
       r="2.7187493" />
    <circle
       style="opacity:1;fill:#f4d7d7;fill-opacity:1"
       id="cat-right-eye"
       cx="737.95862"
       cy="118.5895"
       r="2.7187493" />
  </g>
  <path
     d="m 80.032727,43.714621 q 0.222313,-0.161683 0.707359,-0.444626 1.313668,-0.525467 1.899765,-0.525467 0.889252,0 1.53598,1.374298 0.343575,-0.262734 0.949883,-0.707359 0.74778,-0.383996 1.273247,-0.525467 1.212616,-0.303154 1.717872,-0.303154 0.970093,0 1.778504,1.030723 0.464836,0.586098 1.091354,1.879555 0.202103,0.424415 0.626518,1.677452 0.525467,1.576401 1.050934,3.03154 0,0.06063 -0.02021,0.161682 -0.02021,0.101051 -0.02021,0.161682 -0.363784,0.262733 -0.606307,0.262733 -0.262734,0 -0.505257,-0.262733 -0.02021,-0.222313 -0.101051,-0.626518 -0.505257,-1.53598 -1.535981,-4.405838 -0.606308,-1.111565 -0.909462,-1.455139 -0.464836,-0.545677 -1.091354,-0.545677 -0.909462,0 -1.879555,0.525467 -0.282943,0.202102 -0.869041,0.586097 -0.202103,0.222313 -0.343575,0.485047 -0.06063,0.04042 -0.161682,0.101051 0.08084,0.262733 0.565888,2.708175 0,0.08084 0.363785,2.708176 l 0.02021,0.04042 q 0.04042,0.02021 0.181892,0.08084 l -0.08084,0.303154 q -0.101051,0.343574 -0.626518,0.343574 -0.222313,0 -0.545677,-0.222313 -0.303154,-4.324997 -0.990303,-6.042869 l -0.08084,-0.202103 q -0.505257,-1.273247 -0.848832,-1.273247 -0.222312,0 -0.82862,0.242524 -0.586098,0.222313 -0.72757,0.363784 -0.464836,0.262734 -0.889252,0.666939 v 0.04042 l 0.02021,0.06063 0.02021,0.141471 q 0.04042,0.242524 0.02021,0.303154 0.08084,1.839135 0.303154,5.517403 l 0.06063,0.121261 0.02021,0.06063 q 0,0.04042 0.06063,0.121262 -0.242523,0.444626 -0.586098,0.444626 -0.464836,0 -0.626518,-0.262734 l -0.262733,-6.588546 q -0.06063,-0.424416 -0.222313,-1.758293 0.02021,-0.282944 -0.08084,-0.72757 -0.06063,-0.262733 0.121261,-0.444626 0.202103,-0.202103 0.464836,-0.202103 0.06063,0.02021 0.505257,0.181893 0.02021,0.586098 0.08084,1.798714 z"
     id="path28"
     style="font-size:40px;line-height:1.25;letter-spacing:0px;word-spacing:0px;white-space:pre;fill:#292929;stroke-width:0.264583" />
  <path
     d="m 100.6674,48.140669 -0.0202,0.141472 -0.2021,0.848831 q -0.0606,0.282943 -1.15199,2.081657 -0.76799,0.626518 -1.879555,0.626518 -0.121261,0 -0.363784,-0.06063 -0.222313,-0.08084 -0.323365,-0.08084 Q 95.45316,51.515785 94.624539,50.545692 94.483067,50.38401 94.099072,49.919174 93.816128,49.434128 93.411923,48.423614 93.1694,47.433311 93.1694,46.645111 q 0,-2.30397 1.293457,-3.496376 1.010513,-0.929672 1.899765,-0.929672 0.869041,0 2.202918,0.343574 0.08084,0.04042 0.121262,0.121262 0.687149,0.242523 1.050934,1.050934 0.181892,0.383995 0.626514,1.374298 0.0606,0.141472 0.26274,0.444626 -0.384,0.424415 -0.62652,0.424415 -0.08084,0 -0.242524,-0.04042 -0.141472,-0.06063 -0.222313,-0.06063 -0.687149,-0.06063 -3.476165,-0.06063 l -0.08084,-0.06063 q -0.282943,-0.04042 -0.485046,-0.02021 l -0.303154,0.02021 q -0.06063,0 -0.181892,-0.02021 l -0.303154,-0.06063 q -0.06063,-0.02021 -0.525467,-0.06063 -0.06063,0.383996 -0.06063,0.889252 0,2.687965 1.616821,3.81974 0.828621,0.586098 1.859345,0.586098 0.76799,0 1.232826,-0.666939 0.323364,-0.646728 0.666939,-1.313667 0.121261,-0.343574 0.101051,-0.626518 -0.04042,-0.545677 0.242523,-0.869042 0.141472,-0.101051 0.56588,-0.08084 0.28295,0.424416 0.28295,0.666939 0,0.04042 -0.0202,0.121262 z m -1.414721,-3.173012 q -0.383995,-1.333878 -1.394508,-1.738083 -0.80841,-0.161682 -1.232826,-0.161682 -0.646729,0 -1.293457,0.565887 -0.545677,0.464837 -0.869041,1.131775 0.485046,0.121262 0.76799,0.121262 z"
     id="path30"
     style="font-size:40px;line-height:1.25;letter-spacing:0px;word-spacing:0px;white-space:pre;fill:#292929;stroke-width:0.264583" />
  <path
     d="m 107.92285,50.54569 q -0.28294,0.424416 -1.03072,0.72757 -0.66694,0.282944 -1.23283,0.282944 -0.0808,0 -0.24252,-0.02021 -0.14147,-0.02021 -0.22231,-0.02021 -0.0606,0 -0.26274,-0.06063 -1.11156,-0.323364 -1.37429,-0.424415 -0.72757,-0.303154 -1.19241,-0.788201 -0.82862,-0.848831 -0.82862,-2.202919 0,-0.909462 0.50526,-2.101867 0.52546,-1.192406 1.1924,-1.859345 l 0.64673,-0.646728 q 0.26273,-0.202103 0.88925,-0.707359 0.22231,-0.181893 0.384,-0.181893 0.2021,0 0.4042,0.08084 0.24253,-0.04042 0.64673,0.161682 0.40421,0.202103 0.54568,0.202103 0.32336,0.121262 0.90946,0.586098 0.22231,0.161682 0.32336,0.222313 v 0.161682 q 1.15199,1.697662 1.15199,3.354904 0,0.707359 -0.36379,1.717872 -0.38399,1.071144 -0.84883,1.515769 z m -1.25303,-6.507705 q -0.10105,-0.101052 -0.54568,-0.202103 -0.10105,-0.08084 -0.18189,-0.121261 -0.14147,-0.02021 -0.384,-0.101052 l -0.18189,-0.04042 q -0.0202,-0.02021 -0.0606,-0.02021 -0.384,0 -1.65724,1.45514 -0.26274,0.303154 -0.84883,1.53598 -0.28295,0.949882 -0.28295,1.51577 0,1.919975 2.28376,2.384811 0.68715,0.141472 0.90946,0.141472 0.92968,0 1.55619,-0.707359 0.82863,-1.172196 0.82863,-2.667756 0,-2.041236 -1.43493,-3.173011 z"
     id="path32"
     style="font-size:40px;line-height:1.25;letter-spacing:0px;word-spacing:0px;white-space:pre;fill:#292929;stroke-width:0.264583" />
  <path
     d="m 112.30846,49.353285 q 0.26273,-1.273247 0.64673,-3.597428 -0.0404,-0.141472 -0.0404,-0.303154 0,-0.586097 0.54568,-0.586097 0.4042,0 0.66693,0.383995 0.22232,0.202102 0.82863,0.7882 1.41471,1.434929 2.64754,2.991119 0.10105,-2.869857 0.0808,-3.395324 -0.0202,-0.525467 -0.0202,-1.030724 0,-0.485046 0.0202,-0.949882 l -0.0404,-0.06063 q -0.0606,-0.121262 -0.0606,-0.222313 0,-0.181892 0.12126,-0.464836 0.34358,-0.161682 0.44463,-0.161682 0.62652,0 0.62652,0.586097 0,-0.141471 -0.0808,0.363785 -0.0606,0.505257 -0.0606,1.111565 0,0.06063 0.0202,0.242523 0.0202,0.161682 0.0202,0.303154 l 0.0202,0.424416 v 4.810043 l -0.24252,0.282944 q -0.12126,0.141471 -0.32336,0.141471 -0.30316,0 -0.60631,-0.262733 -0.54568,-1.010513 -1.31367,-1.879555 -0.42441,-0.464836 -1.53598,-1.717872 -0.34357,-0.404206 -0.76799,-0.76799 -0.0606,0.161682 -0.12126,0.626518 -0.0202,0.141472 -0.0404,0.505256 -0.2021,0.848832 -0.50526,2.445443 -0.0404,0.262733 -0.16168,0.949882 0.0808,0.121262 0.0808,0.222313 0,0.202103 -0.22231,0.383995 -0.2021,0.161682 -0.40421,0.161682 -0.10105,0 -0.2021,-0.08084 -0.28294,-0.02021 -0.4042,-0.343574 -0.0404,-0.121262 0,-0.282944 -0.48505,-1.51577 -0.76799,-3.01133 -0.0202,-0.04042 -0.0808,-0.121261 l -0.42441,-1.657242 q -0.26273,-0.909462 -0.56589,-1.596611 V 44.30072 q 0.26273,-0.282943 0.48505,-0.282943 0.12126,0 0.5861,0.121261 l 1.23282,4.628151 z"
     id="path34"
     style="font-size:40px;line-height:1.25;letter-spacing:0px;word-spacing:0px;white-space:pre;fill:#292929;stroke-width:0.264583" />
</svg>
