<?xml version="1.0" encoding="UTF-8" standalone="no"?>
<svg
   viewBox="0 0 14.586749 14.587329"
   fill="none"
   x="0px"
   y="0px"
   version="1.1"
   id="svg8"
   width="14.586749"
   height="14.587329"
   sodipodi:docname="close-btn.svg"
   inkscape:version="1.1 (1:1.1+202105261517+ce6663b3b7)"
   xmlns:inkscape="http://www.inkscape.org/namespaces/inkscape"
   xmlns:sodipodi="http://sodipodi.sourceforge.net/DTD/sodipodi-0.dtd"
   xmlns="http://www.w3.org/2000/svg"
   xmlns:svg="http://www.w3.org/2000/svg">
  <sodipodi:namedview
     id="namedview5"
     pagecolor="#ffffff"
     bordercolor="#666666"
     borderopacity="1.0"
     inkscape:pageshadow="2"
     inkscape:pageopacity="0.0"
     inkscape:pagecheckerboard="0"
     showgrid="false"
     showguides="true"
     inkscape:guide-bbox="true"
     inkscape:snap-bbox="true"
     inkscape:bbox-paths="true"
     inkscape:bbox-nodes="true"
     inkscape:snap-bbox-edge-midpoints="true"
     inkscape:snap-bbox-midpoints="true"
     inkscape:object-paths="false"
     inkscape:snap-intersection-paths="true"
     inkscape:snap-smooth-nodes="true"
     inkscape:snap-midpoints="true"
     inkscape:snap-object-midpoints="true"
     fit-margin-top="0"
     fit-margin-left="0"
     fit-margin-right="0"
     fit-margin-bottom="0"
     inkscape:zoom="32"
     inkscape:cx="5.046875"
     inkscape:cy="9.296875"
     inkscape:window-width="1920"
     inkscape:window-height="1055"
     inkscape:window-x="0"
     inkscape:window-y="25"
     inkscape:window-maximized="1"
     inkscape:current-layer="svg8" />
  <defs
     id="defs12" />
  <path
     fill-rule="evenodd"
     clip-rule="evenodd"
     d="m 14.292344,1.7070625 c 0.3905,-0.3906 0.39044,-1.0237 -1.2e-4,-1.4142 -0.39056,-0.3905 -1.02372,-0.3905 -1.41421,10e-5 L 7.2927745,5.8791631 1.707075,0.2934625 c -0.3905,-0.3905 -1.023701,-0.3905 -1.4142,0 -0.3905,0.3905 -0.3905,1.0237 0,1.4142 L 5.8786745,7.2934631 0.293274,12.879843 c -0.3904,0.39056 -0.3904,1.02372 2e-4,1.41421 0.3905,0.3905 1.023701,0.39044 1.4142,-1.2e-4 L 7.2929745,8.7076631 12.879642,14.294439 c 0.39052,0.39052 1.02369,0.39052 1.41421,0 0.39053,-0.39053 0.39053,-1.02369 0,-1.41422 L 8.7069745,7.2933631 Z"
     fill="black"
     id="path2"
     style="fill:#1e1e1e;fill-opacity:1"
     sodipodi:nodetypes="cscccccccccccsccc" />
</svg>
