<?xml version="1.0" encoding="UTF-8" standalone="no"?>
<svg
   viewBox="0 0 15.438299 15.438837"
   fill="none"
   x="0px"
   y="0px"
   version="1.1"
   id="svg8"
   width="15.438299"
   height="15.438837"
   xmlns="http://www.w3.org/2000/svg"
   xmlns:svg="http://www.w3.org/2000/svg">
  <defs
     id="defs12" />
  <path
     fill-rule="evenodd"
     clip-rule="evenodd"
     d="m 14.292344,1.7070625 c 0.3905,-0.3906 0.39044,-1.0237 -1.2e-4,-1.4142 -0.39056,-0.3905 -1.02372,-0.3905 -1.41421,10e-5 L 7.2927745,5.8791631 1.707075,0.2934625 c -0.3905,-0.3905 -1.023701,-0.3905 -1.4142,0 -0.3905,0.3905 -0.3905,1.0237 0,1.4142 L 5.8786745,7.2934631 0.293274,12.879843 c -0.3904,0.39056 -0.3904,1.02372 2e-4,1.41421 0.3905,0.3905 1.023701,0.39044 1.4142,-1.2e-4 L 7.2929745,8.7076631 13.731192,15.145947 c 0.39052,0.39052 1.02369,0.39052 1.41421,0 0.39053,-0.39053 0.39053,-1.02369 0,-1.41422 L 8.7069745,7.2933631 Z"
     fill="black"
     id="path2"
     style="fill:#1e1e1e;fill-opacity:1" />
</svg>
