<?xml version="1.0" encoding="UTF-8" standalone="no"?>
<svg
   width="24.000315"
   height="15.292"
   preserveAspectRatio="xMidYMid meet"
   viewBox="0 0 24.000315 15.292"
   style="-ms-transform:rotate(360deg);-webkit-transform:rotate(360deg)"
   version="1.1"
   id="svg6"
   sodipodi:docname="kofi-icon.svg"
   inkscape:version="1.1 (1:1.1+202105261517+ce6663b3b7)"
   xmlns:inkscape="http://www.inkscape.org/namespaces/inkscape"
   xmlns:sodipodi="http://sodipodi.sourceforge.net/DTD/sodipodi-0.dtd"
   xmlns="http://www.w3.org/2000/svg"
   xmlns:svg="http://www.w3.org/2000/svg">
  <defs
     id="defs10" />
  <sodipodi:namedview
     id="namedview8"
     pagecolor="#ffffff"
     bordercolor="#666666"
     borderopacity="1.0"
     inkscape:pageshadow="2"
     inkscape:pageopacity="0.0"
     inkscape:pagecheckerboard="0"
     showgrid="false"
     fit-margin-top="0"
     fit-margin-left="0"
     fit-margin-right="0"
     fit-margin-bottom="0"
     inkscape:zoom="20.5"
     inkscape:cx="5.9268293"
     inkscape:cy="4.7560976"
     inkscape:window-width="1920"
     inkscape:window-height="1055"
     inkscape:window-x="0"
     inkscape:window-y="25"
     inkscape:window-maximized="1"
     inkscape:current-layer="svg6" />
  <path
     d="M 23.880955,4.593 C 23.107955,0.508 19.021955,0 19.021955,0 H 0.72295472 c -0.604,0 -0.679,0.798 -0.679,0.798 0,0 -0.082,7.324 -0.022,11.822 0.164,2.424 2.58599998,2.672 2.58599998,2.672 0,0 8.2670003,-0.023 11.9660003,-0.049 2.438,-0.426 2.683,-2.566 2.658,-3.734 4.352,0.24 7.422,-2.831 6.649,-6.916 z m -11.062,3.511 c -1.246,1.453 -4.0110003,3.976 -4.0110003,3.976 0,0 -0.121,0.119 -0.31,0.023 -0.076,-0.057 -0.108,-0.09 -0.108,-0.09 -0.443,-0.441 -3.368,-3.049 -4.034,-3.954 -0.709,-0.965 -1.041,-2.7 -0.091,-3.71 0.951,-1.01 3.005,-1.086 4.363,0.407 0,0 1.5650003,-1.782 3.4680003,-0.963 1.904,0.82 1.832,3.011 0.723,4.311 z m 6.173,0.478 c -0.928,0.116 -1.682,0.028 -1.682,0.028 V 2.929 h 1.77 c 0,0 1.971,0.551 1.971,2.638 0,1.913 -0.985,2.667 -2.059,3.015 z"
     fill="#626262"
     id="path2"
     style="fill:#1e1e1e;fill-opacity:1" />
</svg>
