<?xml version="1.0" encoding="UTF-8" standalone="no"?>
<svg
   id="svg8"
   version="1.1"
   viewBox="0 0 97.426239 114.2196"
   height="114.2196mm"
   width="97.426239mm"
   xmlns="http://www.w3.org/2000/svg"
   xmlns:svg="http://www.w3.org/2000/svg"
   xmlns:rdf="http://www.w3.org/1999/02/22-rdf-syntax-ns#"
   xmlns:cc="http://creativecommons.org/ns#"
   xmlns:dc="http://purl.org/dc/elements/1.1/">
  <defs
     id="defs2" />
  <metadata
     id="metadata5">
    <rdf:RDF>
      <cc:Work
         rdf:about="">
        <dc:format>image/svg+xml</dc:format>
        <dc:type
           rdf:resource="http://purl.org/dc/dcmitype/StillImage" />
      </cc:Work>
    </rdf:RDF>
  </metadata>
  <g
     id="layer1"
     transform="translate(610.57705,-132.92035)">
    <path
       id="path849"
       style="opacity:1;fill:#3b3b3b;stroke:none;stroke-width:0.999999px;stroke-linecap:butt;stroke-linejoin:miter;stroke-opacity:1;fill-opacity:1"
       d="m -2297.1426,502.97461 -10,7.14258 12.8574,68.57031 20,72.85742 40,48.57227 14.2852,21.42773 8.5723,34.28516 -17.1446,25.71484 -2.8554,38.57227 12.8554,42.85742 -50,41.42773 -3.1601,29.16993 h 277.4199 l -12.8301,-30.59766 -24.2851,-25.71484 12.8554,-25.71485 4.2871,-40 -17.1425,-48.57031 -20,-22.85742 14.2851,-14.28711 7.1426,-25.71289 45.7148,-45.71485 22.8575,-58.57226 21.4277,-68.57031 -8.5723,-20 -35.7129,10 -61.4296,38.57031 -38.5704,45.71484 -21.4296,47.14258 -21.4278,11.42969 -27.1426,-7.14258 -21.4296,-54.28711 -41.4278,-47.14258 z"
       transform="scale(0.26458333)" />
    <ellipse
       style="fill:#ffd5d5;fill-opacity:1;stroke-width:0.661458;stroke-linecap:round;stroke-linejoin:round;stroke-dashoffset:2.50394"
       id="path956-3"
       cx="-551.1051"
       cy="195.29204"
       rx="2.0478432"
       ry="3.7797594" />
    <path
       id="path872"
       d="m -543.30293,185.9195 v -22.67857 l 3.77975,-12.47321 13.22917,-7.18155 5.66965,-3.02381 2.64583,0.37798 -7.18156,15.49702 -5.29166,15.49702 z"
       style="fill:#ffaaaa;stroke:none;stroke-width:0.264583px;stroke-linecap:butt;stroke-linejoin:miter;stroke-opacity:1" />
    <path
       id="path874"
       d="m -584.12444,171.17848 -5.66962,-21.54464 -12.09524,-9.82738 -3.02382,0.75595 6.80358,23.05655 6.42559,12.47321 6.04763,7.18155 z"
       style="fill:#ffaaaa;stroke:none;stroke-width:0.264583px;stroke-linecap:butt;stroke-linejoin:miter;stroke-opacity:1" />
    <ellipse
       style="opacity:1;fill:#ffd5d5;fill-opacity:1;stroke-width:0.661458;stroke-linecap:round;stroke-linejoin:round;stroke-dashoffset:2.50394"
       id="path956"
       cx="-574.63678"
       cy="195.29204"
       rx="2.0478432"
       ry="3.7797594" />
  </g>
</svg>
