<?xml version="1.0" encoding="UTF-8" standalone="no"?>
<!-- Created with Inkscape (http://www.inkscape.org/) -->

<svg
   width="485.65875"
   height="666.37195"
   viewBox="0 0 128.49721 176.31091"
   version="1.1"
   id="svg5"
   xmlns="http://www.w3.org/2000/svg"
   xmlns:svg="http://www.w3.org/2000/svg">
  <defs
     id="defs2">
    <rect
       x="586.39877"
       y="167.40736"
       width="208.06367"
       height="78.230075"
       id="rect1699" />
    <rect
       x="388.61905"
       y="-5.7489542"
       width="486.57699"
       height="224.3506"
       id="rect2088" />
  </defs>
  <g
     id="layer1"
     transform="translate(-683.18511,-91.788752)">
    <g
       id="g14183">
      <ellipse
         style="opacity:0.159297;fill:#000000;fill-opacity:1;stroke:none;stroke-width:0.661458;stroke-linecap:round;stroke-linejoin:round;stroke-miterlimit:4;stroke-dasharray:none;stroke-dashoffset:2.50394;stroke-opacity:1"
         id="path13409"
         cx="747.43372"
         cy="263.08444"
         rx="64.248604"
         ry="5.0152192" />
      <path
         style="fill:#1a1a1a;stroke:none;stroke-width:0.264583px;stroke-linecap:butt;stroke-linejoin:miter;stroke-opacity:1"
         d="m 754.51385,261.40814 11.4221,-0.0117 0.2958,1.90353 1.1855,0.7592 15.9013,-0.26377 11.1685,-0.81478 3.949,-0.96871 0.8065,-2.0114 -0.2939,-3.6376 -1.8779,-2.48947 -7.1197,-1.87104 -3.1467,-0.0927 -5.2351,-1.76411 -11.5742,0.0283 -11.313,1.21273 z"
         id="path12526" />
      <path
         style="fill:#1a1a1a;stroke:none;stroke-width:0.264583px;stroke-linecap:butt;stroke-linejoin:miter;stroke-opacity:1"
         d="m 742.75825,263.39039 13.3732,-0.42029 8.8336,-21.70368 2.5796,-14.5042 -0.6836,-11.86757 -4.0634,-17.89328 -4.3224,-14.90796 -8.4875,-13.93331 1.1269,-7.22312 -0.9223,-7.42575 -1.8498,-6.94511 -0.3977,-7.51922 0.7221,-4.5095 -20.1488,-14.54649 -22.6266,13.87944 0.9718,9.73996 -3.4132,14.99867 -0.5713,6.66496 1.6568,9.87615 -0.131,7.30586 1.6149,6.36825 -2.8891,9.10225 -3.8539,12.05611 -4.1166,9.51511 -0.5951,9.47275 1.2604,11.23911 1.7998,8.79494 3.4425,7.62692 4.0028,4.09336 5.7011,2.39203 z"
         id="path12528" />
      <path
         style="fill:none;stroke:#666666;stroke-width:0.264583;stroke-linecap:butt;stroke-linejoin:miter;stroke-miterlimit:4;stroke-dasharray:none;stroke-opacity:1"
         d="m 784.79235,254.75951 -12.5465,2.38395 -4.2341,2.06394 -2.0758,2.18904 0.2958,1.90354"
         id="path12530" />
      <path
         style="fill:#000080;stroke:none;stroke-width:0.264583px;stroke-linecap:butt;stroke-linejoin:miter;stroke-opacity:1"
         d="m 726.65035,173.18794 -20.6308,15.63626 0.9775,14.23908 0.7331,12.46211 2.8508,8.24333 3.7932,27.32901 -0.7201,4.84668 -2.2915,3.43478 -0.684,4.29375 0.6853,1.64925 6.9494,0.28451 6.2705,-0.45199 1.3063,-2.14058 0.3257,-2.81662 0.4821,-5.30943 -1.3229,-11.46664 0.853,-8.67386 0.5565,-9.77767 -3.1856,-11.12572 3.2093,4.64429 2.4788,-0.71587 -0.4819,9.48407 0.6751,8.41266 -1.1695,10.04282 -0.076,3.61955 -1.0263,5.61374 -0.3679,2.82257 0.3109,0.75548 -0.814,1.26151 0.1047,3.65155 1.1311,1.69325 5.6539,0.86942 8.4975,-0.39039 0.8026,-1.73651 -0.1287,-2.49944 -1.9443,-3.87926 0.2261,-5.98912 3.1715,-17.10295 3.0419,-12.48828 1.5022,-7.4889 0.7948,-4.73339 -0.366,-8.07154 0.6015,-5.44619 0.9015,-4.43482 -1.5787,-7.96366 0.052,-10.02335 1.1868,-5.59133 z"
         id="path12532" />
      <path
         id="path12534"
         style="fill:#292929;fill-opacity:1;stroke:none;stroke-width:0.264583px;stroke-linecap:butt;stroke-linejoin:miter;stroke-opacity:1"
         d="m 728.51695,119.99113 -22.62653,13.87926 0.97152,9.73997 -3.41273,14.99857 -0.57152,6.66522 1.65674,9.87589 -0.13073,7.30601 1.61488,6.36809 0.97719,14.23892 0.73329,12.46229 2.85049,8.24342 3.79354,27.32909 -0.72035,4.84673 -2.29135,3.43442 -0.68418,4.29379 0.68522,1.64952 6.94946,0.28422 6.27042,-0.45165 1.30638,-2.14096 0.32607,-2.81637 0.48215,-5.30924 -1.32292,-11.467 0.85265,-8.67388 0.55655,-9.7777 -3.18532,-11.12542 3.20911,4.64416 2.4789,-0.71572 -0.48212,9.48418 0.6754,8.4124 -1.16996,10.0428 -0.076,3.61942 -1.02629,5.61413 -0.36793,2.82256 0.31109,0.75551 -0.81391,1.26142 0.10491,3.65146 1.13067,1.69293 5.65391,0.86971 8.49767,-0.39068 0.80254,-1.73633 -0.12867,-2.49959 -1.94405,-3.87883 0.22582,-5.9893 3.17138,-17.10283 3.04217,-12.48865 1.50226,-7.48894 0.79478,-4.73305 -0.3664,-8.07186 0.60153,-5.44618 0.90176,-4.43435 -1.57872,-7.96386 0.0522,-10.02316 1.18649,-5.59139 1.12708,-7.22333 -0.92245,-7.4259 -1.84949,-6.9448 -0.39791,-7.51944 0.72192,-4.50928 z" />
      <g
         id="g12781"
         transform="rotate(18.09826,719.96541,125.95406)">
        <path
           style="fill:#0c0c0c;fill-opacity:1;stroke:none;stroke-width:0.264583px;stroke-linecap:butt;stroke-linejoin:miter;stroke-opacity:1"
           d="m 727.64094,144.23712 12.0854,-4.01355 9.69271,-5.629 2.5739,-7.29341 -0.072,-4.01865 -2.47152,-5.85943 1.64248,-6.23095 1.8815,-6.57323 0.062,-5.760613 -1.43647,-2.775154 -3.1433,0.903128 -8.97159,6.576409 -3.25738,0.84744 -8.51222,-0.17704 -9.94402,0.3256 -2.46354,-1.19804 -7.73175,-6.173576 -3.43542,-1.640848 -1.71411,0.196543 -0.70162,1.65753 0.35189,8.336041 1.32317,4.49855 0.86564,6.38603 -2.07919,3.65831 -0.14258,5.77514 1.06159,4.57308 2.61251,5.16229 9.38492,4.86771 11.61664,3.47309 z"
           id="path12536" />
        <circle
           style="opacity:1;fill:#f4d7d7;fill-opacity:1;stroke:none;stroke-width:0.661458;stroke-linecap:round;stroke-linejoin:round;stroke-miterlimit:4;stroke-dasharray:none;stroke-dashoffset:2.50394;stroke-opacity:1"
           id="circle12630"
           cx="718.255"
           cy="118.70667"
           r="2.7187493" />
        <circle
           style="opacity:1;fill:#f4d7d7;fill-opacity:1;stroke:none;stroke-width:0.661458;stroke-linecap:round;stroke-linejoin:round;stroke-miterlimit:4;stroke-dasharray:none;stroke-dashoffset:2.50394;stroke-opacity:1"
           id="circle12632"
           cx="737.95862"
           cy="118.5895"
           r="2.7187493" />
      </g>
    </g>
  </g>
</svg>
